<?xml version="1.0" encoding="utf-8"?>
<!-- Generator: Adobe Illustrator 25.0.1, SVG Export Plug-In . SVG Version: 6.00 Build 0)  -->
<svg version="1.1" id="Lager_1" xmlns="http://www.w3.org/2000/svg" xmlns:xlink="http://www.w3.org/1999/xlink" x="0px" y="0px"
	 viewBox="0 0 247 75" style="enable-background:new 0 0 247 75;" xml:space="preserve">
<style type="text/css">
	.st0{fill:#FFFFFF;}
	.st1{fill:#D24D57;}
	.st2{fill:#D47860;}
	.st3{fill:#8D6708;}
	.st4{fill:#336E7B;}
	.st5{fill:#049372;}
	.st6{fill:#989B1B;}
	.st7{fill:#1E824C;}
	.st8{fill:none;}
	.st9{fill:#9B9B9B;}
</style>
<g>
	<path class="st0" d="M26.4,68.7l-1.6-5c0-0.1-0.1-0.1-0.2-0.1h-12c-0.1,0-0.1,0-0.2,0.1l-1.6,5c-0.1,0.2-0.2,0.3-0.5,0.3H8.3
		C8,69,7.9,68.9,8,68.6l8.8-27.2c0.1-0.2,0.2-0.3,0.5-0.3H20c0.2,0,0.4,0.1,0.5,0.3l8.9,27.2l0,0.2c0,0.2-0.1,0.3-0.4,0.3h-2.2
		C26.6,69,26.5,68.9,26.4,68.7z M13.3,61.2c0,0,0.1,0.1,0.1,0.1h10.3c0.1,0,0.1,0,0.1-0.1s0.1-0.1,0-0.1l-5.2-16.3
		c0-0.1-0.1-0.1-0.1-0.1s-0.1,0-0.1,0.1L13.3,61C13.3,61.1,13.3,61.1,13.3,61.2z"/>
	<path class="st0" d="M34.6,68.6V41.4c0-0.3,0.1-0.4,0.4-0.4h2c0.3,0,0.4,0.1,0.4,0.4v25c0,0.1,0.1,0.2,0.2,0.2h14.1
		c0.3,0,0.4,0.1,0.4,0.4v1.7c0,0.3-0.1,0.4-0.4,0.4H35C34.7,69,34.6,68.9,34.6,68.6z"/>
	<path class="st0" d="M58.2,67.3c-1.8-1.4-2.6-3.2-2.6-5.4v-1.2c0-0.3,0.1-0.4,0.4-0.4h2c0.3,0,0.4,0.1,0.4,0.4v1.1
		c0,1.6,0.6,2.8,1.9,3.7s3.1,1.4,5.3,1.4c2.1,0,3.6-0.4,4.7-1.3c1.1-0.9,1.6-2,1.6-3.5c0-0.9-0.3-1.7-0.7-2.4s-1.3-1.3-2.3-1.9
		s-2.5-1.3-4.3-2c-2-0.8-3.6-1.5-4.7-2.1s-2-1.4-2.7-2.3s-1-2.1-1-3.6c0-2.2,0.8-4,2.3-5.2s3.7-1.9,6.4-1.9c3,0,5.3,0.7,7,2.1
		s2.6,3.2,2.6,5.5v0.9c0,0.3-0.1,0.4-0.4,0.4h-2c-0.3,0-0.4-0.1-0.4-0.4v-0.7c0-1.6-0.6-2.8-1.8-3.8c-1.2-1-2.9-1.5-5.1-1.5
		c-1.9,0-3.4,0.4-4.4,1.2c-1,0.8-1.5,1.9-1.5,3.4c0,1,0.3,1.8,0.7,2.4s1.2,1.2,2.1,1.6s2.3,1.1,4.3,1.8c1.9,0.8,3.5,1.6,4.7,2.2
		c1.2,0.7,2.1,1.5,2.9,2.5c0.7,1,1.1,2.2,1.1,3.7c0,2.2-0.8,4-2.5,5.4s-3.9,2-6.9,2C62.3,69.4,60,68.7,58.2,67.3z"/>
	<path class="st0" d="M97.1,41.4v1.7c0,0.3-0.1,0.4-0.4,0.4h-7.8c-0.1,0-0.2,0.1-0.2,0.2v24.9c0,0.3-0.1,0.4-0.4,0.4h-2
		c-0.3,0-0.4-0.1-0.4-0.4V43.7c0-0.1-0.1-0.2-0.2-0.2h-7.5c-0.3,0-0.4-0.1-0.4-0.4v-1.7c0-0.3,0.1-0.4,0.4-0.4h18.5
		C96.9,41,97.1,41.2,97.1,41.4z"/>
	<path class="st0" d="M120.3,43.5h-14.7c-0.1,0-0.2,0.1-0.2,0.2v9.9c0,0.1,0.1,0.2,0.2,0.2h10.3c0.3,0,0.4,0.1,0.4,0.4v1.7
		c0,0.3-0.1,0.4-0.4,0.4h-10.3c-0.1,0-0.2,0.1-0.2,0.2v10c0,0.1,0.1,0.2,0.2,0.2h14.7c0.3,0,0.4,0.1,0.4,0.4v1.7
		c0,0.3-0.1,0.4-0.4,0.4H103c-0.3,0-0.4-0.1-0.4-0.4V41.4c0-0.3,0.1-0.4,0.4-0.4h17.3c0.3,0,0.4,0.1,0.4,0.4v1.7
		C120.7,43.4,120.5,43.5,120.3,43.5z"/>
	<path class="st0" d="M142.6,68.8l-5.9-12.4c0-0.1-0.1-0.1-0.2-0.1h-6.8c-0.1,0-0.2,0.1-0.2,0.2v12.2c0,0.3-0.1,0.4-0.4,0.4h-2
		c-0.3,0-0.4-0.1-0.4-0.4V41.4c0-0.3,0.1-0.4,0.4-0.4h10.4c2.3,0,4.1,0.7,5.6,2.1s2.1,3.3,2.1,5.6c0,1.9-0.5,3.4-1.5,4.8
		c-1,1.3-2.4,2.2-4.1,2.5c-0.1,0.1-0.1,0.1-0.1,0.2l6,12.3c0,0.1,0,0.1,0,0.2c0,0.2-0.1,0.3-0.3,0.3h-2.1
		C142.8,69,142.7,68.9,142.6,68.8z M129.6,43.7v10.1c0,0.1,0.1,0.2,0.2,0.2h7.4c1.6,0,2.8-0.5,3.8-1.4s1.4-2.2,1.4-3.8
		s-0.5-2.8-1.4-3.8s-2.2-1.5-3.8-1.5h-7.4C129.6,43.5,129.6,43.6,129.6,43.7z"/>
	<path class="st0" d="M151.2,68.6V41.4c0-0.3,0.1-0.4,0.4-0.4h2c0.3,0,0.4,0.1,0.4,0.4v25c0,0.1,0.1,0.2,0.2,0.2h14.1
		c0.3,0,0.4,0.1,0.4,0.4v1.7c0,0.3-0.1,0.4-0.4,0.4h-16.7C151.4,69,151.2,68.9,151.2,68.6z"/>
	<path class="st0" d="M174,68.6V41.4c0-0.3,0.1-0.4,0.4-0.4h2c0.3,0,0.4,0.1,0.4,0.4v27.2c0,0.3-0.1,0.4-0.4,0.4h-2
		C174.1,69,174,68.9,174,68.6z"/>
	<path class="st0" d="M201.4,41h2c0.3,0,0.4,0.1,0.4,0.4v27.2c0,0.3-0.1,0.4-0.4,0.4h-2c-0.2,0-0.4-0.1-0.5-0.3l-13.6-22.2
		c0-0.1-0.1-0.1-0.1-0.1s-0.1,0.1-0.1,0.1l0,22c0,0.3-0.1,0.4-0.4,0.4h-2c-0.3,0-0.4-0.1-0.4-0.4V41.4c0-0.3,0.1-0.4,0.4-0.4h2
		c0.2,0,0.4,0.1,0.5,0.3l13.6,22.2c0,0.1,0.1,0.1,0.1,0.1s0.1-0.1,0.1-0.1l0-22C201,41.2,201.1,41,201.4,41z"/>
	<path class="st0" d="M210.8,68.6V41.4c0-0.3,0.1-0.4,0.4-0.4h9.4c2.6,0,4.7,0.7,6.3,2.1s2.3,3.3,2.3,5.6v12.6
		c0,2.4-0.8,4.3-2.3,5.6s-3.7,2.1-6.3,2.1h-9.4C210.9,69,210.8,68.9,210.8,68.6z M213.8,66.6h7c1.7,0,3.1-0.5,4.1-1.5
		c1-1,1.5-2.4,1.5-4.1V49.2c0-1.7-0.5-3.1-1.5-4.1c-1-1-2.4-1.5-4.2-1.5h-7c-0.1,0-0.2,0.1-0.2,0.2v22.7
		C213.6,66.5,213.7,66.6,213.8,66.6z"/>
</g>
<g>
	<path class="st1" d="M74.7,12.1c0.3,0.2,0.4,0.4,0.3,0.7l-1.1,6.7c0,0.4-0.3,0.5-0.7,0.3c-0.6-0.1-1.1-0.2-1.6-0.2
		c-0.5,0-1,0-1.3,0.1c-1,0.1-1.8,0.5-2.5,1.2c-0.7,0.6-1,1.5-1,2.5V36c0,0.2-0.1,0.3-0.2,0.4s-0.3,0.2-0.4,0.2h-6.8
		c-0.2,0-0.3-0.1-0.4-0.2s-0.2-0.3-0.2-0.4V12.4c0-0.2,0.1-0.3,0.2-0.4s0.3-0.2,0.4-0.2h6.8c0.2,0,0.3,0.1,0.4,0.2
		c0.1,0.1,0.2,0.3,0.2,0.4v1.5c0,0.1,0,0.2,0.1,0.2c0.1,0,0.1,0,0.1-0.1c1.3-1.7,2.9-2.5,5-2.5C73.1,11.5,74.1,11.7,74.7,12.1z"/>
	<path class="st2" d="M99.9,25.8c0,0.4-0.2,0.6-0.6,0.6H84.6c-0.1,0-0.1,0-0.2,0.1s-0.1,0.1-0.1,0.2c0.1,0.3,0.2,0.8,0.5,1.4
		c0.4,0.7,1,1.2,1.7,1.6c0.8,0.4,1.7,0.6,2.8,0.6c2,0,3.6-0.7,4.8-2c0.1-0.2,0.3-0.2,0.4-0.2c0.2,0,0.3,0.1,0.4,0.2l3.7,4.2
		c0.1,0.1,0.2,0.2,0.2,0.4c0,0.1-0.1,0.3-0.2,0.4c-1.1,1.2-2.5,2.1-4.1,2.8s-3.4,1-5.4,1c-2.9,0-5.4-0.6-7.4-1.9
		c-2-1.3-3.5-3-4.4-5.3c-0.7-1.6-1-3.6-1-6c0-1.7,0.3-3.3,0.8-4.8c0.8-2.4,2.2-4.2,4.1-5.6c1.9-1.4,4.2-2,6.8-2c2.1,0,4,0.5,5.7,1.4
		s3,2.2,4.1,3.8c1,1.6,1.7,3.5,2,5.5C99.9,23,99.9,24.2,99.9,25.8z M84.7,20.6c-0.1,0.3-0.2,0.7-0.2,1c-0.1,0.2,0,0.2,0.2,0.2h6.8
		c0.1,0,0.2-0.1,0.2-0.2c0-0.3-0.1-0.6-0.2-1c-0.2-0.8-0.6-1.4-1.2-1.8c-0.6-0.4-1.3-0.6-2.2-0.6C86.3,18.2,85.2,19,84.7,20.6z"/>
	<path class="st3" d="M127.2,24.1c0,2-0.3,3.8-0.8,5.6c-0.7,2.3-1.9,4.1-3.6,5.4c-1.7,1.3-3.6,2-5.8,2c-2.4,0-4.3-0.9-5.6-2.7
		c-0.1-0.1-0.1-0.1-0.2-0.1s-0.1,0.1-0.1,0.2V36c0,0.2-0.1,0.3-0.2,0.4s-0.3,0.2-0.4,0.2h-6.8c-0.2,0-0.3-0.1-0.4-0.2
		s-0.2-0.3-0.2-0.4V3.6c0-0.2,0.1-0.3,0.2-0.4s0.3-0.2,0.4-0.2h6.8c0.2,0,0.3,0.1,0.4,0.2c0.1,0.1,0.2,0.3,0.2,0.4v10
		c0,0.1,0,0.2,0.1,0.2c0.1,0,0.1,0,0.2-0.1c1.2-1.5,2.9-2.3,5.3-2.3c2.3,0,4.3,0.6,5.9,1.8c1.6,1.2,2.8,2.8,3.5,4.8
		C126.9,19.8,127.2,21.8,127.2,24.1z M118.9,24.2c0-1.8-0.3-3.2-1-4.3c-0.6-1.2-1.6-1.7-2.9-1.7c-1.2,0-2.2,0.6-2.8,1.7
		c-0.6,1-0.9,2.5-0.9,4.3c0,1.7,0.3,3.1,0.8,4.1c0.7,1.3,1.6,1.9,2.9,1.9c1.3,0,2.4-0.6,3-1.8C118.6,27.3,118.9,25.9,118.9,24.2z"/>
	<path class="st4" d="M153.7,25.8c0,0.4-0.2,0.6-0.6,0.6h-14.6c-0.1,0-0.1,0-0.2,0.1s-0.1,0.1-0.1,0.2c0.1,0.3,0.2,0.8,0.5,1.4
		c0.4,0.7,1,1.2,1.7,1.6c0.8,0.4,1.7,0.6,2.8,0.6c2,0,3.6-0.7,4.8-2c0.1-0.2,0.3-0.2,0.4-0.2c0.2,0,0.3,0.1,0.4,0.2l3.7,4.2
		c0.1,0.1,0.2,0.2,0.2,0.4c0,0.1-0.1,0.3-0.2,0.4c-1.1,1.2-2.5,2.1-4.1,2.8s-3.4,1-5.4,1c-2.9,0-5.4-0.6-7.4-1.9
		c-2-1.3-3.5-3-4.4-5.3c-0.7-1.6-1-3.6-1-6c0-1.7,0.3-3.3,0.8-4.8c0.8-2.4,2.2-4.2,4.1-5.6c1.9-1.4,4.2-2,6.8-2c2.1,0,4,0.5,5.7,1.4
		s3,2.2,4.1,3.8c1,1.6,1.7,3.5,2,5.5C153.8,23,153.8,24.2,153.7,25.8z M138.5,20.6c-0.1,0.3-0.2,0.7-0.2,1c-0.1,0.2,0,0.2,0.2,0.2
		h6.8c0.1,0,0.2-0.1,0.2-0.2c0-0.3-0.1-0.6-0.2-1c-0.2-0.8-0.6-1.4-1.2-1.8c-0.6-0.4-1.3-0.6-2.2-0.6
		C140.2,18.2,139.1,19,138.5,20.6z"/>
	<path class="st5" d="M161.5,35c-2-1.3-3.4-3.1-4.2-5.4c-0.6-1.5-0.9-3.4-0.9-5.5s0.3-4,0.9-5.5c0.8-2.2,2.2-4,4.2-5.3
		c2-1.3,4.3-1.9,6.9-1.9c2.7,0,5,0.7,7,2c2,1.3,3.4,3,4.1,5c0.2,0.6,0.4,1.2,0.4,1.9c0,0.3-0.2,0.6-0.5,0.6l-6.7,1h-0.1
		c-0.3,0-0.5-0.2-0.6-0.5L172,21c-0.1-0.3-0.1-0.5-0.2-0.7c-0.3-0.6-0.7-1.1-1.3-1.5c-0.6-0.4-1.3-0.6-2.1-0.6
		c-1.7,0-2.8,0.8-3.4,2.3c-0.4,0.9-0.5,2.1-0.5,3.7c0,1.4,0.2,2.6,0.5,3.6c0.6,1.6,1.7,2.5,3.4,2.5c0.8,0,1.6-0.2,2.2-0.7
		s1-1,1.3-1.8c0-0.1,0.1-0.2,0.1-0.3c0,0,0.1-0.1,0.1-0.2c0.1-0.4,0.3-0.5,0.7-0.5l6.7,1.1c0.3,0.1,0.5,0.2,0.5,0.5
		c0,0.5-0.1,1-0.3,1.6c-0.8,2.2-2.1,4-4.1,5.2S171,37,168.4,37C165.8,37,163.5,36.3,161.5,35z"/>
	<path class="st6" d="M183.3,36.4c-0.1-0.1-0.2-0.3-0.2-0.4V3.6c0-0.2,0.1-0.3,0.2-0.4s0.3-0.2,0.4-0.2h6.8c0.2,0,0.3,0.1,0.4,0.2
		c0.1,0.1,0.2,0.3,0.2,0.4v14.9c0,0.1,0,0.2,0.1,0.2c0.1,0,0.1,0,0.2-0.1l5.2-6.5c0.2-0.2,0.4-0.3,0.7-0.3h7.8
		c0.3,0,0.5,0.1,0.5,0.3c0,0.1,0,0.2-0.1,0.4l-6.3,8.1c-0.1,0.1-0.1,0.2,0,0.3l7.1,15c0.1,0.1,0.1,0.2,0.1,0.3
		c0,0.3-0.2,0.4-0.5,0.4h-7.1c-0.3,0-0.5-0.1-0.7-0.4L193.8,26c0-0.1-0.1-0.1-0.2-0.1c-0.1,0-0.1,0-0.2,0.1l-2.3,3.2
		c-0.1,0.1-0.1,0.2-0.1,0.3V36c0,0.2-0.1,0.3-0.2,0.4c-0.1,0.1-0.3,0.2-0.4,0.2h-6.8C183.5,36.6,183.4,36.5,183.3,36.4z"/>
	<path class="st7" d="M224.2,12.5c1.7,0.7,3.1,1.7,4.1,3c1,1.3,1.5,2.7,1.5,4.2V36c0,0.2-0.1,0.3-0.2,0.4c-0.1,0.1-0.3,0.2-0.4,0.2
		h-6.8c-0.2,0-0.3-0.1-0.4-0.2c-0.1-0.1-0.2-0.3-0.2-0.4v-1.7c0-0.1,0-0.2-0.1-0.2c-0.1,0-0.1,0-0.2,0.2c-1.2,1.8-3.3,2.7-6.2,2.7
		c-2.6,0-4.6-0.6-6.1-1.8c-1.5-1.2-2.3-3-2.3-5.3c0-2.5,0.9-4.4,2.6-5.7c1.7-1.3,4.2-2,7.5-2h4.7c0.2,0,0.2-0.1,0.2-0.2V21
		c0-0.9-0.3-1.5-0.9-2c-0.6-0.5-1.4-0.7-2.4-0.7c-0.8,0-1.4,0.1-2,0.4s-0.9,0.7-1.1,1.1c-0.2,0.3-0.4,0.5-0.7,0.5l-6.9-0.9
		c-0.4-0.1-0.6-0.2-0.6-0.4c0.1-1.4,0.7-2.7,1.7-3.8s2.3-2,3.9-2.7s3.5-1,5.5-1C220.5,11.4,222.5,11.8,224.2,12.5z M220.6,30.3
		c0.8-0.6,1.2-1.5,1.2-2.5v-1.2c0-0.2-0.1-0.2-0.2-0.2h-2.9c-1.2,0-2.1,0.2-2.8,0.6c-0.7,0.4-1,1-1,1.9c0,0.7,0.2,1.3,0.7,1.7
		c0.5,0.4,1.1,0.6,2,0.6C218.9,31.3,219.9,31,220.6,30.3z"/>
</g>
<rect x="83" y="86.9" class="st8" width="1.3" height="3.2"/>
<g>
	<path class="st9" d="M233.9,63.6c0-0.1,0.1-0.1,0.3-0.1l1.6,0.3c0.1,0,0.2,0.1,0.1,0.3c-0.1,0.2-0.1,0.4-0.1,0.6c0,0.2,0,0.3,0,0.4
		c0,0.5,0.2,0.9,0.5,1.3c0.3,0.3,0.8,0.5,1.3,0.5h5.1c0.1,0,0.1,0,0.1,0.1s0.1,0.1,0.1,0.2v1.7c0,0.1,0,0.1-0.1,0.2
		s-0.1,0.1-0.1,0.1H234c-0.1,0-0.1,0-0.1-0.1s-0.1-0.1-0.1-0.2V67c0-0.1,0-0.1,0.1-0.2s0.1-0.1,0.1-0.1h0.8c0,0,0.1,0,0.1,0
		c0,0,0,0,0-0.1c-0.8-0.5-1.2-1.2-1.2-2.1C233.7,64.2,233.8,63.9,233.9,63.6z"/>
	<path class="st9" d="M238.4,54.5l0.6,0c0.1,0,0.2,0.1,0.2,0.2v5.6c0,0.1,0,0.1,0.1,0.1c0.4,0,0.7-0.1,0.8-0.2
		c0.9-0.3,1.3-1,1.3-2.1c0-0.8-0.3-1.5-1-1.9c-0.1-0.1-0.1-0.1-0.1-0.2c0-0.1,0-0.1,0-0.1l0.9-1.1c0.1-0.1,0.2-0.1,0.3-0.1
		c0.5,0.4,0.9,0.9,1.2,1.5c0.3,0.6,0.4,1.3,0.4,2.1c0,0.9-0.2,1.7-0.6,2.4c-0.4,0.7-1,1.1-1.8,1.4c-0.6,0.3-1.5,0.4-2.7,0.4
		c-0.7,0-1.3-0.1-1.7-0.2c-0.8-0.2-1.5-0.7-2-1.4s-0.7-1.5-0.7-2.4c0-2.4,1.2-3.7,3.7-4C237.7,54.5,238,54.5,238.4,54.5z
		 M235.8,59.7c0.2,0.3,0.5,0.5,0.9,0.6c0.2,0.1,0.5,0.1,0.8,0.1c0.1,0,0.1,0,0.1-0.1v-3.7c0-0.1,0-0.1-0.1-0.1
		c-0.3,0-0.5,0.1-0.7,0.1c-0.4,0.1-0.8,0.3-1,0.6c-0.2,0.3-0.4,0.7-0.4,1.2C235.5,59,235.6,59.4,235.8,59.7z"/>
	<path class="st9" d="M242.8,51.3c-0.2,0.6-0.5,1-0.9,1.3S241,53,240.5,53h-0.2c-0.1,0-0.1,0-0.1-0.1s-0.1-0.1-0.1-0.2v-1.6
		c0-0.1,0-0.1,0.1-0.2s0.1-0.1,0.1-0.1h0c0.3,0,0.6-0.2,0.8-0.5c0.2-0.3,0.3-0.8,0.3-1.3c0-0.5-0.1-0.9-0.3-1.2
		c-0.2-0.3-0.5-0.4-0.8-0.4c-0.3,0-0.5,0.1-0.6,0.4c-0.1,0.3-0.3,0.6-0.4,1.2l-0.2,0.7c-0.2,0.6-0.4,1.1-0.6,1.6s-0.5,0.8-0.8,1.1
		S237,53,236.4,53c-0.8,0-1.5-0.3-2-1c-0.5-0.7-0.8-1.5-0.8-2.6c0-0.7,0.1-1.4,0.4-1.9s0.6-1,1-1.3c0.4-0.3,0.9-0.4,1.4-0.4
		c0.1,0,0.1,0,0.1,0.1s0.1,0.1,0.1,0.2v1.5c0,0.1,0,0.1-0.1,0.2s-0.1,0.1-0.1,0.1c-0.3,0-0.6,0.2-0.8,0.5s-0.3,0.7-0.3,1.3
		c0,0.5,0.1,0.8,0.3,1.1s0.4,0.4,0.7,0.4c0.3,0,0.5-0.1,0.7-0.4s0.3-0.8,0.5-1.4l0.1-0.4c0.2-0.6,0.4-1.2,0.6-1.6
		c0.2-0.4,0.5-0.8,0.8-1.1c0.4-0.3,0.8-0.4,1.4-0.4c0.9,0,1.5,0.3,2,1c0.5,0.7,0.7,1.6,0.7,2.7C243.1,50,243,50.7,242.8,51.3z"/>
	<path class="st9" d="M233.9,38.3c0,0-0.1-0.1-0.1-0.2v-1.6c0-0.1,0-0.1,0.1-0.2s0.1-0.1,0.1-0.1h8.8c0.1,0,0.1,0,0.1,0.1
		s0.1,0.1,0.1,0.2v1.6c0,0.1,0,0.1-0.1,0.2s-0.1,0.1-0.1,0.1h-0.6c0,0-0.1,0-0.1,0c0,0,0,0.1,0,0.1c0.6,0.5,1,1.2,1,2.2
		c0,0.9-0.3,1.7-0.8,2.3s-1.3,0.9-2.3,0.9H234c-0.1,0-0.1,0-0.1-0.1s-0.1-0.1-0.1-0.2v-1.7c0-0.1,0-0.1,0.1-0.2s0.1-0.1,0.1-0.1h5.5
		c0.6,0,1-0.2,1.4-0.4s0.5-0.7,0.5-1.2c0-0.5-0.2-1-0.5-1.3c-0.3-0.3-0.8-0.5-1.4-0.5H234C234,38.4,233.9,38.4,233.9,38.3z"/>
	<path class="st9" d="M234.5,22.1c0.6-0.5,1.3-0.8,2.3-0.8h6c0.1,0,0.1,0,0.1,0.1s0.1,0.1,0.1,0.2v1.6c0,0.1,0,0.1-0.1,0.2
		s-0.1,0.1-0.1,0.1h-5.5c-0.5,0-1,0.2-1.3,0.4c-0.3,0.3-0.5,0.7-0.5,1.2s0.2,0.9,0.5,1.2c0.3,0.3,0.8,0.5,1.3,0.5h5.5
		c0.1,0,0.1,0,0.1,0.1s0.1,0.1,0.1,0.2v1.6c0,0.1,0,0.1-0.1,0.2s-0.1,0.1-0.1,0.1h-5.5c-0.5,0-1,0.2-1.3,0.5s-0.5,0.7-0.5,1.2
		c0,0.5,0.1,0.8,0.4,1.1c0.3,0.3,0.6,0.5,1.1,0.5h5.9c0.1,0,0.1,0,0.1,0.1c0,0,0.1,0.1,0.1,0.2v1.7c0,0.1,0,0.1-0.1,0.2
		s-0.1,0.1-0.1,0.1H234c-0.1,0-0.1,0-0.1-0.1s-0.1-0.1-0.1-0.2v-1.7c0-0.1,0-0.1,0.1-0.2c0,0,0.1-0.1,0.1-0.1h0.6c0,0,0.1,0,0.1,0
		c0,0,0,0,0-0.1c-0.3-0.3-0.6-0.6-0.8-1s-0.2-0.8-0.2-1.3c0-0.6,0.1-1.1,0.4-1.5c0.2-0.4,0.6-0.8,1-1c0,0,0-0.1,0-0.1
		c-0.5-0.3-0.8-0.6-1.1-1.1c-0.2-0.5-0.3-1-0.3-1.6C233.7,23.3,233.9,22.6,234.5,22.1z"/>
	<path class="st9" d="M238.4,11.4l0.6,0c0.1,0,0.2,0.1,0.2,0.2v5.6c0,0.1,0,0.1,0.1,0.1c0.4,0,0.7-0.1,0.8-0.2
		c0.9-0.3,1.3-1,1.3-2.1c0-0.8-0.3-1.5-1-1.9c-0.1,0-0.1-0.1-0.1-0.2c0,0,0-0.1,0-0.1l0.9-1.1c0.1-0.1,0.2-0.1,0.3,0
		c0.5,0.4,0.9,0.9,1.2,1.5c0.3,0.6,0.4,1.3,0.4,2.1c0,0.9-0.2,1.7-0.6,2.4s-1,1.1-1.8,1.4c-0.6,0.3-1.5,0.4-2.7,0.4
		c-0.7,0-1.3-0.1-1.7-0.2c-0.8-0.2-1.5-0.7-2-1.4c-0.5-0.7-0.7-1.5-0.7-2.4c0-2.4,1.2-3.7,3.7-4C237.7,11.4,238,11.4,238.4,11.4z
		 M235.8,16.6c0.2,0.3,0.5,0.5,0.9,0.6c0.2,0.1,0.5,0.1,0.8,0.1c0.1,0,0.1,0,0.1-0.1v-3.7c0-0.1,0-0.1-0.1-0.1
		c-0.3,0-0.5,0.1-0.7,0.1c-0.4,0.1-0.8,0.3-1,0.6c-0.2,0.3-0.4,0.7-0.4,1.2C235.5,15.9,235.6,16.3,235.8,16.6z"/>
</g>
</svg>
