<?xml version="1.0" encoding="utf-8"?>
<!-- Generator: Adobe Illustrator 26.0.2, SVG Export Plug-In . SVG Version: 6.00 Build 0)  -->
<svg version="1.1" id="Lager_1" xmlns="http://www.w3.org/2000/svg" xmlns:xlink="http://www.w3.org/1999/xlink" x="0px" y="0px"
	 viewBox="0 0 247 75" style="enable-background:new 0 0 247 75;" xml:space="preserve">
<style type="text/css">
	.st0{fill:#D24D57;}
	.st1{fill:#D47860;}
	.st2{fill:#8D6708;}
	.st3{fill:#336E7B;}
	.st4{fill:#049372;}
	.st5{fill:#989B1B;}
	.st6{fill:#1E824C;}
	.st7{fill:#FFFFFF;}
	.st8{fill:#9B9B9B;}
	.st9{fill:none;}
</style>
<g>
	<g>
		<path class="st0" d="M66.6,35.3h-7.1V12.2h7.1V16c1.6-2.4,4.2-4.1,7.3-4.1v7.5h-2c-3.4,0-5.3,1.2-5.3,5.1V35.3z"/>
		<path class="st1" d="M87.6,35.6c-6.8,0-11.7-4.6-11.7-11.9s4.8-11.9,11.7-11.9c6.8,0,11.5,4.5,11.5,11.5c0,0.7,0,1.4-0.1,2.1H82.9
			c0.2,3,2.1,4.4,4.4,4.4c2,0,3.1-1,3.7-2.2h7.6C97.4,32.2,93.3,35.6,87.6,35.6z M83,21.5h8.9c0-2.5-2-4-4.4-4
			C85.2,17.5,83.4,18.9,83,21.5z"/>
		<path class="st2" d="M117.1,11.8c5.7,0,10.2,4.6,10.2,11.9s-4.5,12-10.2,12c-3.4,0-5.9-1.5-7.1-3.6v3.2h-7.1V4.6h7.1v10.8
			C111.2,13.4,113.7,11.8,117.1,11.8z M114.9,18c-2.7,0-5.1,2-5.1,5.7s2.4,5.7,5.1,5.7c2.7,0,5.1-2.1,5.1-5.8S117.6,18,114.9,18z"/>
		<path class="st3" d="M141.3,35.6c-6.8,0-11.7-4.6-11.7-11.9s4.8-11.9,11.7-11.9c6.8,0,11.5,4.5,11.5,11.5c0,0.7,0,1.4-0.1,2.1
			h-16.1c0.2,3,2.1,4.4,4.4,4.4c2,0,3.1-1,3.7-2.2h7.6C151.2,32.2,147.1,35.6,141.3,35.6z M136.7,21.5h8.9c0-2.5-2-4-4.4-4
			C138.9,17.5,137.1,18.9,136.7,21.5z"/>
		<path class="st4" d="M166.8,11.8c5.8,0,9.9,3.2,11.1,8.7h-7.6c-0.6-1.6-1.7-2.7-3.7-2.7c-2.5,0-4.3,2-4.3,5.9s1.7,5.9,4.3,5.9
			c2,0,3.1-1,3.7-2.7h7.6c-1.2,5.4-5.3,8.7-11.1,8.7c-6.8,0-11.6-4.6-11.6-11.9C155.2,16.4,160,11.8,166.8,11.8z"/>
		<path class="st5" d="M181.7,4.6h7.1v17l7-9.4h8.8l-9.6,11.6l9.7,11.5h-8.8l-7.1-9.7v9.7h-7.1V4.6z"/>
		<path class="st6" d="M216.1,11.8c3.4,0,5.9,1.6,7.1,3.6v-3.3h7.1v23.2h-7.1V32c-1.3,2-3.7,3.6-7.2,3.6c-5.6,0-10.2-4.6-10.2-12
			S210.4,11.8,216.1,11.8z M218.2,18c-2.7,0-5.1,2-5.1,5.7s2.4,5.8,5.1,5.8c2.7,0,5.1-2,5.1-5.7S220.9,18,218.2,18z"/>
	</g>
	<g>
		<path class="st7" d="M47.7,61.3H33.3l-3.1,8.1h-1l10.8-28.3h0.8l10.8,28.3h-1L47.7,61.3z M40.5,42.4l-6.9,18.2h13.9L40.5,42.4z"/>
		<path class="st7" d="M57.3,40.2v28.5h11.2v0.7h-12V40.2H57.3z"/>
		<path class="st7" d="M80.9,69.7c-5.9,0-8.9-3.5-9.3-7.2h0.8c0.3,2.4,2.2,6.4,8.5,6.4c4.8,0,7.8-3,7.8-6.6
			c0-10.3-16.6-3.9-16.6-15.2c0-3.8,3.3-7.3,8.6-7.3c5.5,0,8.1,3.3,8.8,6.1h-0.8c-0.5-2.1-2.7-5.4-7.9-5.4c-4.2,0-7.8,2.5-7.8,6.5
			c0,10.5,16.6,4.1,16.6,15.2C89.5,65.9,86.7,69.7,80.9,69.7z"/>
		<path class="st7" d="M92.4,40.2h17.8v0.7h-8.5v28.5h-0.8V40.9h-8.5V40.2z"/>
		<path class="st7" d="M128.9,40.9h-13.4v13.5h12.2v0.7h-12.2v13.5h13.4v0.7h-14.3V40.2h14.3V40.9z"/>
		<path class="st7" d="M141.8,40.2c6.6,0,9.5,3.4,9.5,8.2c0,4.7-2.7,7.6-7.7,8.2l7.9,12.8h-1l-7.8-12.7c-0.2,0-0.5,0-0.8,0h-6.6
			v12.7h-0.8V40.2H141.8z M141.8,41h-6.5v14.9h6.6c6,0,8.5-3.2,8.5-7.5C150.5,43.9,148.1,41,141.8,41z"/>
		<path class="st7" d="M157.6,40.2v28.5h11.2v0.7h-12V40.2H157.6z"/>
		<path class="st7" d="M173.1,40.2h0.8v29.2h-0.8V40.2z"/>
		<path class="st7" d="M200.8,40.2v29.2H200l-18.1-27.7v27.7H181V40.2h0.8L200,67.9V40.2H200.8z"/>
		<path class="st7" d="M231,54.8c0,9.2-5.3,14.6-15.4,14.6h-7.7V40.2h7.7C225.7,40.2,231,45.6,231,54.8z M215.5,68.7
			c9.8,0,14.6-5.3,14.6-13.9s-4.8-13.9-14.6-13.9h-6.8v27.7H215.5z"/>
	</g>
	<g>
		<path class="st8" d="M242.6,67v1.7h-8.4V67h1.2c-0.8-0.5-1.4-1.3-1.4-2.5h1.8V65c0,1.3,0.5,2.1,2.3,2.1H242.6z"/>
		<path class="st8" d="M242.8,59.3c0,2.4-1.7,4.2-4.3,4.2c-2.6,0-4.3-1.7-4.3-4.2c0-2.4,1.7-4.1,4.1-4.1c0.3,0,0.6,0,0.9,0.1v6.4
			c1.4-0.1,2.2-1.1,2.2-2.4c0-1.1-0.5-1.7-1.2-2v-1.9C241.6,55.9,242.8,57.2,242.8,59.3z M237.7,61.7V57c-1.3,0-2.1,1.1-2.1,2.3
			C235.6,60.6,236.4,61.5,237.7,61.7z"/>
		<path class="st8" d="M242.8,50.5c0,2-1.2,3.4-2.7,3.5v-1.8c0.7-0.1,1.3-0.7,1.3-1.7c0-1-0.4-1.5-1-1.5c-1.6,0-0.7,4.9-3.8,4.9
			c-1.3,0-2.4-1.3-2.4-3.2c0-1.9,1-3.2,2.7-3.2v1.7c-0.7,0.1-1.2,0.6-1.2,1.6c0,0.9,0.4,1.4,0.9,1.4c1.7,0,0.7-4.7,3.8-4.8
			C241.7,47.2,242.8,48.5,242.8,50.5z"/>
		<path class="st8" d="M242.6,37.7v1.7h-1c0.7,0.5,1.1,1.5,1.1,2.5c0,2-1.2,3.5-3.6,3.5h-4.9v-1.7h4.7c1.5,0,2.3-0.8,2.3-2.1
			c0-1.3-0.8-2.1-2.3-2.1h-4.7v-1.7H242.6z"/>
		<path class="st8" d="M237.9,23.5c-1.5,0-2.3,0.8-2.3,2.1c0,1.3,0.8,2.1,2.3,2.1h4.7v1.7h-4.7c-1.5,0-2.3,0.8-2.3,2.1
			c0,1.3,0.8,2.1,2.3,2.1h4.7v1.7h-8.4v-1.7h1c-0.7-0.6-1.1-1.5-1.1-2.5c0-1.3,0.6-2.4,1.7-3c-1-0.5-1.7-1.7-1.7-2.9
			c0-2,1.2-3.5,3.6-3.5h5v1.7H237.9z"/>
		<path class="st8" d="M242.8,16c0,2.4-1.7,4.2-4.3,4.2c-2.6,0-4.3-1.7-4.3-4.2c0-2.4,1.7-4.1,4.1-4.1c0.3,0,0.6,0,0.9,0.1v6.4
			c1.4-0.1,2.2-1.1,2.2-2.4c0-1.1-0.5-1.7-1.2-2v-1.9C241.6,12.6,242.8,13.9,242.8,16z M237.7,18.4v-4.7c-1.3,0-2.1,1.1-2.1,2.3
			C235.6,17.2,236.4,18.2,237.7,18.4z"/>
	</g>
</g>
<rect x="83" y="86.9" class="st9" width="1.3" height="3.2"/>
</svg>
